<svg xmlns="http://www.w3.org/2000/svg" width="800" height="396" viewBox="0 0 800 396"><defs><filter id="sh" x="-20%" y="-20%" width="140%" height="160%"><feDropShadow dx="0" dy="6" stdDeviation="9" flood-color="#000000" flood-opacity="0.28"/></filter><linearGradient id="bg1" x1="0" y1="0" x2="1" y2="1"><stop offset="0" stop-color="#0B3A2B"/><stop offset="1" stop-color="#05140F"/></linearGradient><pattern id="dots2" width="22" height="22" patternUnits="userSpaceOnUse"><circle cx="2" cy="2" r="1.2" fill="#FFFFFF" opacity="0.07"/></pattern><radialGradient id="glow3" cx="0.15" cy="0.2" r="0.6"><stop offset="0" stop-color="#00C48F" stop-opacity="0.35"/><stop offset="1" stop-color="#00C48F" stop-opacity="0"/></radialGradient></defs><rect width="800" height="396" fill="url(#bg1)"/><rect width="800" height="396" fill="url(#dots2)"/><rect width="800" height="396" fill="url(#glow3)"/><circle cx="74.0" cy="74.0" r="34" fill="#475569" filter="url(#sh)"/><g transform="translate(56.1 56.1) scale(1.4875)" fill="none" stroke="#FFFFFF" stroke-width="2" stroke-linecap="round" stroke-linejoin="round"><path d="M19 17h2c.6 0 1-.4 1-1v-3c0-.9-.7-1.7-1.5-1.9C18.7 10.6 16 10 16 10s-1.3-1.4-2.2-2.3c-.5-.4-1.1-.7-1.8-.7H5c-.6 0-1.1.4-1.4.9l-1.4 2.9A3.7 3.7 0 0 0 2 12v4c0 .6.4 1 1 1h2"/><circle cx="7" cy="17" r="2"/><path d="M9 17h6"/><circle cx="17" cy="17" r="2"/></g><rect x="300.0" y="54.0" width="284.4" height="174.1" rx="12" fill="#FFFFFF" filter="url(#sh)"/><path d="M304 54 L293 54 L310 66 Z" fill="#FFFFFF" opacity="1"/><text x="312.0" y="81.3" font-family="'Plus Jakarta Sans','Inter','Segoe UI',Roboto,'Helvetica Neue',Arial,sans-serif" font-size="17" font-weight="400" fill="#1B2E1F" text-anchor="start" opacity="1">Hello Ahmed! Your Creta is due</text><text x="312.0" y="104.8" font-family="'Plus Jakarta Sans','Inter','Segoe UI',Roboto,'Helvetica Neue',Arial,sans-serif" font-size="17" font-weight="400" fill="#1B2E1F" text-anchor="start" opacity="1">for its 20,000 km service.</text><text x="312.0" y="128.2" font-family="'Plus Jakarta Sans','Inter','Segoe UI',Roboto,'Helvetica Neue',Arial,sans-serif" font-size="17" font-weight="400" fill="#1B2E1F" text-anchor="start" opacity="1">Book a slot this week 🔧</text><text x="572.4" y="141.9" font-family="'Plus Jakarta Sans','Inter','Segoe UI',Roboto,'Helvetica Neue',Arial,sans-serif" font-size="11.56" font-weight="400" fill="#5F6F64" text-anchor="end" opacity="1">10:00</text><line x1="300.0" y1="149.9" x2="584.4" y2="149.9" stroke="#E3E8DC" stroke-width="1.2" stroke-linecap="round" opacity="1"/><g transform="translate(380.5 161.0) scale(0.7083)" fill="none" stroke="#1E88C8" stroke-width="2" stroke-linecap="round" stroke-linejoin="round"><path d="M14.7 6.3a1 1 0 0 0 0 1.4l1.6 1.6a1 1 0 0 0 1.4 0l3.106-3.105c.32-.322.863-.22.983.218a6 6 0 0 1-8.259 7.057l-7.91 7.91a1 1 0 0 1-2.999-3l7.91-7.91a6 6 0 0 1 7.057-8.259c.438.12.54.662.219.984z"/></g><text x="400.9" y="175.1" font-family="'Plus Jakarta Sans','Inter','Segoe UI',Roboto,'Helvetica Neue',Arial,sans-serif" font-size="16.15" font-weight="600" fill="#1E88C8" text-anchor="start" opacity="1">Book service</text><line x1="300.0" y1="189.0" x2="584.4" y2="189.0" stroke="#E3E8DC" stroke-width="1.2" stroke-linecap="round" opacity="1"/><g transform="translate(379.0 200.1) scale(0.7083)" fill="none" stroke="#1E88C8" stroke-width="2" stroke-linecap="round" stroke-linejoin="round"><path d="M13.832 16.568a1 1 0 0 0 1.213-.303l.355-.465A2 2 0 0 1 17 15h3a2 2 0 0 1 2 2v3a2 2 0 0 1-2 2A18 18 0 0 1 2 4a2 2 0 0 1 2-2h3a2 2 0 0 1 2 2v3a2 2 0 0 1-.8 1.6l-.468.351a1 1 0 0 0-.292 1.233 14 14 0 0 0 6.392 6.384"/></g><text x="399.4" y="214.2" font-family="'Plus Jakarta Sans','Inter','Segoe UI',Roboto,'Helvetica Neue',Arial,sans-serif" font-size="16.15" font-weight="600" fill="#1E88C8" text-anchor="start" opacity="1">Call workshop</text><rect x="484.7" y="246.1" width="255.3" height="49.0" rx="12" fill="#D9FDD3" filter="url(#sh)"/><path d="M736.0 246.12 L747.0 246.12 L730.0 258.12 Z" fill="#D9FDD3" opacity="1"/><text x="496.7" y="273.4" font-family="'Plus Jakarta Sans','Inter','Segoe UI',Roboto,'Helvetica Neue',Arial,sans-serif" font-size="17" font-weight="400" fill="#1B2E1F" text-anchor="start" opacity="1">Booked for Friday 10 AM 👍</text><text x="728.0" y="287.1" font-family="'Plus Jakarta Sans','Inter','Segoe UI',Roboto,'Helvetica Neue',Arial,sans-serif" font-size="11.56" font-weight="400" fill="#5F6F64" text-anchor="end" opacity="1">10:06</text><g transform="translate(683.0 273.8) scale(0.5667)" fill="none" stroke="#4FA3F7" stroke-width="2.4" stroke-linecap="round" stroke-linejoin="round"><path d="M18 6 7 17l-5-5"/><path d="m22 10-7.5 7.5L13 16"/></g><rect x="60.0" y="300.0" width="163.0" height="28.0" rx="14.0" fill="#E8ECF1"/><g transform="translate(70.0 307.0) scale(0.5833)" fill="none" stroke="#334155" stroke-width="2.2" stroke-linecap="round" stroke-linejoin="round"><path d="m12 14 4-4"/><path d="M3.34 19a10 10 0 1 1 17.32 0"/></g><text x="87.5" y="318.9" font-family="'Plus Jakarta Sans','Inter','Segoe UI',Roboto,'Helvetica Neue',Arial,sans-serif" font-size="14" font-weight="700" fill="#334155" text-anchor="start" opacity="1">Service reminders</text></svg>