<svg xmlns="http://www.w3.org/2000/svg" width="800" height="396" viewBox="0 0 800 396"><defs><filter id="sh" x="-20%" y="-20%" width="140%" height="160%"><feDropShadow dx="0" dy="6" stdDeviation="9" flood-color="#000000" flood-opacity="0.28"/></filter><linearGradient id="bg1" x1="0" y1="0" x2="1" y2="1"><stop offset="0" stop-color="#0B3A2B"/><stop offset="1" stop-color="#05140F"/></linearGradient><pattern id="dots2" width="22" height="22" patternUnits="userSpaceOnUse"><circle cx="2" cy="2" r="1.2" fill="#FFFFFF" opacity="0.07"/></pattern><radialGradient id="glow3" cx="0.85" cy="0.2" r="0.6"><stop offset="0" stop-color="#00C48F" stop-opacity="0.35"/><stop offset="1" stop-color="#00C48F" stop-opacity="0"/></radialGradient></defs><rect width="800" height="396" fill="url(#bg1)"/><rect width="800" height="396" fill="url(#dots2)"/><rect width="800" height="396" fill="url(#glow3)"/><circle cx="74.0" cy="74.0" r="34" fill="#D9468F" filter="url(#sh)"/><g transform="translate(56.1 56.1) scale(1.4875)" fill="none" stroke="#FFFFFF" stroke-width="2" stroke-linecap="round" stroke-linejoin="round"><path d="M11.017 2.814a1 1 0 0 1 1.966 0l1.051 5.558a2 2 0 0 0 1.594 1.594l5.558 1.051a1 1 0 0 1 0 1.966l-5.558 1.051a2 2 0 0 0-1.594 1.594l-1.051 5.558a1 1 0 0 1-1.966 0l-1.051-5.558a2 2 0 0 0-1.594-1.594l-5.558-1.051a1 1 0 0 1 0-1.966l5.558-1.051a2 2 0 0 0 1.594-1.594z"/><path d="M20 2v4"/><path d="M22 4h-4"/><circle cx="4" cy="20" r="2"/></g><rect x="240.0" y="46.0" width="300.0" height="300.0" rx="14" fill="#FFFFFF" filter="url(#sh)"/><text x="260.0" y="82.0" font-family="'Plus Jakarta Sans','Inter','Segoe UI',Roboto,'Helvetica Neue',Arial,sans-serif" font-size="18" font-weight="800" fill="#1B2E1F" text-anchor="start" opacity="1">Bestsellers 💄</text><rect x="260.0" y="100.0" width="58.0" height="58.0" rx="10" fill="#F8D3DF"/><g transform="translate(274.5 114.5) scale(1.2083)" fill="none" stroke="#9C2E63" stroke-width="1.6" stroke-linecap="round" stroke-linejoin="round"><path d="M2 9.5a5.5 5.5 0 0 1 9.591-3.676.56.56 0 0 0 .818 0A5.49 5.49 0 0 1 22 9.5c0 2.29-1.5 4-3 5.5l-5.492 5.313a2 2 0 0 1-3 .019L5 15c-1.5-1.5-3-3.2-3-5.5"/></g><text x="332.0" y="125.0" font-family="'Plus Jakarta Sans','Inter','Segoe UI',Roboto,'Helvetica Neue',Arial,sans-serif" font-size="15.5" font-weight="600" fill="#1B2E1F" text-anchor="start" opacity="1">Matte lipstick</text><text x="332.0" y="148.0" font-family="'Plus Jakarta Sans','Inter','Segoe UI',Roboto,'Helvetica Neue',Arial,sans-serif" font-size="15" font-weight="800" fill="#007A59" text-anchor="start" opacity="1">₹649</text><rect x="486.0" y="116.0" width="36.0" height="28.0" rx="8" fill="#E6F6F1"/><g transform="translate(494.0 120.0) scale(0.8333)" fill="none" stroke="#007A59" stroke-width="2.4" stroke-linecap="round" stroke-linejoin="round"><path d="M5 12h14"/><path d="M12 5v14"/></g><rect x="260.0" y="176.0" width="58.0" height="58.0" rx="10" fill="#FDE6C2"/><g transform="translate(274.5 190.5) scale(1.2083)" fill="none" stroke="#9C2E63" stroke-width="1.6" stroke-linecap="round" stroke-linejoin="round"><path d="M12 22a7 7 0 0 0 7-7c0-2-1-3.9-3-5.5s-3.5-4-4-6.5c-.5 2.5-2 4.9-4 6.5C6 11.1 5 13 5 15a7 7 0 0 0 7 7z"/></g><text x="332.0" y="201.0" font-family="'Plus Jakarta Sans','Inter','Segoe UI',Roboto,'Helvetica Neue',Arial,sans-serif" font-size="15.5" font-weight="600" fill="#1B2E1F" text-anchor="start" opacity="1">Vitamin C serum</text><text x="332.0" y="224.0" font-family="'Plus Jakarta Sans','Inter','Segoe UI',Roboto,'Helvetica Neue',Arial,sans-serif" font-size="15" font-weight="800" fill="#007A59" text-anchor="start" opacity="1">₹899</text><rect x="486.0" y="192.0" width="36.0" height="28.0" rx="8" fill="#E6F6F1"/><g transform="translate(494.0 196.0) scale(0.8333)" fill="none" stroke="#007A59" stroke-width="2.4" stroke-linecap="round" stroke-linejoin="round"><path d="M5 12h14"/><path d="M12 5v14"/></g><rect x="260.0" y="252.0" width="58.0" height="58.0" rx="10" fill="#E3DDF5"/><g transform="translate(274.5 266.5) scale(1.2083)" fill="none" stroke="#9C2E63" stroke-width="1.6" stroke-linecap="round" stroke-linejoin="round"><path d="M2.062 12.348a1 1 0 0 1 0-.696 10.75 10.75 0 0 1 19.876 0 1 1 0 0 1 0 .696 10.75 10.75 0 0 1-19.876 0"/><circle cx="12" cy="12" r="3"/></g><text x="332.0" y="277.0" font-family="'Plus Jakarta Sans','Inter','Segoe UI',Roboto,'Helvetica Neue',Arial,sans-serif" font-size="15.5" font-weight="600" fill="#1B2E1F" text-anchor="start" opacity="1">Kajal · long-wear</text><text x="332.0" y="300.0" font-family="'Plus Jakarta Sans','Inter','Segoe UI',Roboto,'Helvetica Neue',Arial,sans-serif" font-size="15" font-weight="800" fill="#007A59" text-anchor="start" opacity="1">₹299</text><rect x="486.0" y="268.0" width="36.0" height="28.0" rx="8" fill="#E6F6F1"/><g transform="translate(494.0 272.0) scale(0.8333)" fill="none" stroke="#007A59" stroke-width="2.4" stroke-linecap="round" stroke-linejoin="round"><path d="M5 12h14"/><path d="M12 5v14"/></g><rect x="578.1" y="200.0" width="161.9" height="70.1" rx="12" fill="#D9FDD3" filter="url(#sh)"/><path d="M736.0 200 L747.0 200 L730.0 212 Z" fill="#D9FDD3" opacity="1"/><text x="590.1" y="226.4" font-family="'Plus Jakarta Sans','Inter','Segoe UI',Roboto,'Helvetica Neue',Arial,sans-serif" font-size="16" font-weight="400" fill="#1B2E1F" text-anchor="start" opacity="1">Add the serum</text><text x="590.1" y="248.5" font-family="'Plus Jakarta Sans','Inter','Segoe UI',Roboto,'Helvetica Neue',Arial,sans-serif" font-size="16" font-weight="400" fill="#1B2E1F" text-anchor="start" opacity="1">to my cart 🛒</text><text x="728.0" y="262.1" font-family="'Plus Jakarta Sans','Inter','Segoe UI',Roboto,'Helvetica Neue',Arial,sans-serif" font-size="10.88" font-weight="400" fill="#5F6F64" text-anchor="end" opacity="1">7:12</text><g transform="translate(691.8 249.3) scale(0.5333)" fill="none" stroke="#4FA3F7" stroke-width="2.4" stroke-linecap="round" stroke-linejoin="round"><path d="M18 6 7 17l-5-5"/><path d="m22 10-7.5 7.5L13 16"/></g><rect x="60.0" y="300.0" width="163.0" height="28.0" rx="14.0" fill="#FCE7F1"/><g transform="translate(70.0 307.0) scale(0.5833)" fill="none" stroke="#B12A6F" stroke-width="2.2" stroke-linecap="round" stroke-linejoin="round"><path d="M16 10a4 4 0 0 1-8 0"/><path d="M3.103 6.034h17.794"/><path d="M3.4 5.467a2 2 0 0 0-.4 1.2V20a2 2 0 0 0 2 2h14a2 2 0 0 0 2-2V6.667a2 2 0 0 0-.4-1.2l-2-2.667A2 2 0 0 0 17 2H7a2 2 0 0 0-1.6.8z"/></g><text x="87.5" y="318.9" font-family="'Plus Jakarta Sans','Inter','Segoe UI',Roboto,'Helvetica Neue',Arial,sans-serif" font-size="14" font-weight="700" fill="#B12A6F" text-anchor="start" opacity="1">Shoppable catalog</text></svg>