<svg xmlns="http://www.w3.org/2000/svg" width="800" height="396" viewBox="0 0 800 396"><defs><filter id="sh" x="-20%" y="-20%" width="140%" height="160%"><feDropShadow dx="0" dy="6" stdDeviation="9" flood-color="#000000" flood-opacity="0.28"/></filter><linearGradient id="bg1" x1="0" y1="0" x2="1" y2="1"><stop offset="0" stop-color="#0B3A2B"/><stop offset="1" stop-color="#05140F"/></linearGradient><pattern id="dots2" width="22" height="22" patternUnits="userSpaceOnUse"><circle cx="2" cy="2" r="1.2" fill="#FFFFFF" opacity="0.07"/></pattern><radialGradient id="glow3" cx="0.15" cy="0.2" r="0.6"><stop offset="0" stop-color="#00C48F" stop-opacity="0.35"/><stop offset="1" stop-color="#00C48F" stop-opacity="0"/></radialGradient></defs><rect width="800" height="396" fill="url(#bg1)"/><rect width="800" height="396" fill="url(#dots2)"/><rect width="800" height="396" fill="url(#glow3)"/><circle cx="74.0" cy="74.0" r="34" fill="#0891B2" filter="url(#sh)"/><g transform="translate(56.1 56.1) scale(1.4875)" fill="none" stroke="#FFFFFF" stroke-width="2" stroke-linecap="round" stroke-linejoin="round"><circle cx="12" cy="8" r="5"/><path d="M20 21a8 8 0 0 0-16 0"/></g><rect x="300.0" y="56.0" width="246.5" height="72.5" rx="12" fill="#FFFFFF" filter="url(#sh)"/><path d="M304 56 L293 56 L310 68 Z" fill="#FFFFFF" opacity="1"/><text x="312.0" y="83.3" font-family="'Plus Jakarta Sans','Inter','Segoe UI',Roboto,'Helvetica Neue',Arial,sans-serif" font-size="17" font-weight="400" fill="#1B2E1F" text-anchor="start" opacity="1">Hi Priya! Your invoice for</text><text x="312.0" y="106.8" font-family="'Plus Jakarta Sans','Inter','Segoe UI',Roboto,'Helvetica Neue',Arial,sans-serif" font-size="17" font-weight="400" fill="#1B2E1F" text-anchor="start" opacity="1">October is ready 🧾</text><text x="534.5" y="120.5" font-family="'Plus Jakarta Sans','Inter','Segoe UI',Roboto,'Helvetica Neue',Arial,sans-serif" font-size="11.56" font-weight="400" fill="#5F6F64" text-anchor="end" opacity="1">11:05</text><rect x="300.0" y="142.5" width="300.0" height="168.0" rx="14" fill="#FFFFFF" filter="url(#sh)"/><rect x="312.0" y="154.5" width="276.0" height="96.0" rx="8" fill="#F4F7FB"/><text x="328.0" y="188.5" font-family="'Plus Jakarta Sans','Inter','Segoe UI',Roboto,'Helvetica Neue',Arial,sans-serif" font-size="22" font-weight="800" fill="#1D6FC2" text-anchor="start" opacity="1">Invoice</text><rect x="328.0" y="202.5" width="180.0" height="7.0" rx="3.5" fill="#DCE5F0"/><rect x="328.0" y="215.5" width="140.0" height="7.0" rx="3.5" fill="#DCE5F0"/><rect x="328.0" y="228.5" width="200.0" height="7.0" rx="3.5" fill="#DCE5F0"/><g transform="translate(316.0 262.5) scale(0.9167)" fill="none" stroke="#F2766B" stroke-width="2" stroke-linecap="round" stroke-linejoin="round"><path d="M6 22a2 2 0 0 1-2-2V4a2 2 0 0 1 2-2h8a2.4 2.4 0 0 1 1.704.706l3.588 3.588A2.4 2.4 0 0 1 20 8v12a2 2 0 0 1-2 2z"/><path d="M14 2v5a1 1 0 0 0 1 1h5"/><path d="M10 9H8"/><path d="M16 13H8"/><path d="M16 17H8"/></g><text x="346.0" y="279.5" font-family="'Plus Jakarta Sans','Inter','Segoe UI',Roboto,'Helvetica Neue',Arial,sans-serif" font-size="14" font-weight="600" fill="#1B2E1F" text-anchor="start" opacity="1">Invoice_Oct.pdf · 1 page</text><rect x="607.6" y="198.5" width="152.4" height="70.1" rx="12" fill="#D9FDD3" filter="url(#sh)"/><path d="M756.0 198.45999999999998 L767.0 198.45999999999998 L750.0 210.45999999999998 Z" fill="#D9FDD3" opacity="1"/><text x="619.6" y="224.9" font-family="'Plus Jakarta Sans','Inter','Segoe UI',Roboto,'Helvetica Neue',Arial,sans-serif" font-size="16" font-weight="400" fill="#1B2E1F" text-anchor="start" opacity="1">Paid via UPI ✅</text><text x="619.6" y="246.9" font-family="'Plus Jakarta Sans','Inter','Segoe UI',Roboto,'Helvetica Neue',Arial,sans-serif" font-size="16" font-weight="400" fill="#1B2E1F" text-anchor="start" opacity="1">Thanks!</text><text x="748.0" y="260.5" font-family="'Plus Jakarta Sans','Inter','Segoe UI',Roboto,'Helvetica Neue',Arial,sans-serif" font-size="10.88" font-weight="400" fill="#5F6F64" text-anchor="end" opacity="1">11:20</text><g transform="translate(705.7 247.7) scale(0.5333)" fill="none" stroke="#4FA3F7" stroke-width="2.4" stroke-linecap="round" stroke-linejoin="round"><path d="M18 6 7 17l-5-5"/><path d="m22 10-7.5 7.5L13 16"/></g><rect x="60.0" y="300.0" width="185.0" height="28.0" rx="14.0" fill="#DDF3F9"/><g transform="translate(70.0 307.0) scale(0.5833)" fill="none" stroke="#0E7490" stroke-width="2.2" stroke-linecap="round" stroke-linejoin="round"><path d="M4 2v20l2-1 2 1 2-1 2 1 2-1 2 1 2-1 2 1V2l-2 1-2-1-2 1-2-1-2 1-2-1-2 1Z"/><path d="M8 7h8"/><path d="M12 17.5 8 15h1a4 4 0 0 0 0-8"/><path d="M8 11h8"/></g><text x="87.5" y="318.9" font-family="'Plus Jakarta Sans','Inter','Segoe UI',Roboto,'Helvetica Neue',Arial,sans-serif" font-size="14" font-weight="700" fill="#0E7490" text-anchor="start" opacity="1">Invoices &amp; follow-ups</text></svg>