<svg xmlns="http://www.w3.org/2000/svg" width="800" height="396" viewBox="0 0 800 396"><defs><filter id="sh" x="-20%" y="-20%" width="140%" height="160%"><feDropShadow dx="0" dy="6" stdDeviation="9" flood-color="#000000" flood-opacity="0.28"/></filter><linearGradient id="bg1" x1="0" y1="0" x2="1" y2="1"><stop offset="0" stop-color="#0B3A2B"/><stop offset="1" stop-color="#05140F"/></linearGradient><pattern id="dots2" width="22" height="22" patternUnits="userSpaceOnUse"><circle cx="2" cy="2" r="1.2" fill="#FFFFFF" opacity="0.07"/></pattern><radialGradient id="glow3" cx="0.85" cy="0.2" r="0.6"><stop offset="0" stop-color="#00C48F" stop-opacity="0.35"/><stop offset="1" stop-color="#00C48F" stop-opacity="0"/></radialGradient></defs><rect width="800" height="396" fill="url(#bg1)"/><rect width="800" height="396" fill="url(#dots2)"/><rect width="800" height="396" fill="url(#glow3)"/><circle cx="74.0" cy="74.0" r="34" fill="#A16207" filter="url(#sh)"/><g transform="translate(56.1 56.1) scale(1.4875)" fill="none" stroke="#FFFFFF" stroke-width="2" stroke-linecap="round" stroke-linejoin="round"><path d="M20 9V6a2 2 0 0 0-2-2H6a2 2 0 0 0-2 2v3"/><path d="M2 16a2 2 0 0 0 2 2h16a2 2 0 0 0 2-2v-5a2 2 0 0 0-4 0v1.5a.5.5 0 0 1-.5.5h-11a.5.5 0 0 1-.5-.5V11a2 2 0 0 0-4 0z"/><path d="M4 18v2"/><path d="M20 18v2"/><path d="M12 4v9"/></g><rect x="300.0" y="46.0" width="230.0" height="300.0" rx="14" fill="#FFFFFF" filter="url(#sh)"/><rect x="316.0" y="62.0" width="198.0" height="140.0" rx="10" fill="#EADBC4"/><g transform="translate(362.0 84.0) scale(4.4167)" fill="none" stroke="#7C4A1E" stroke-width="1.4" stroke-linecap="round" stroke-linejoin="round"><path d="M20 9V6a2 2 0 0 0-2-2H6a2 2 0 0 0-2 2v3"/><path d="M2 16a2 2 0 0 0 2 2h16a2 2 0 0 0 2-2v-5a2 2 0 0 0-4 0v1.5a.5.5 0 0 1-.5.5h-11a.5.5 0 0 1-.5-.5V11a2 2 0 0 0-4 0z"/><path d="M4 18v2"/><path d="M20 18v2"/><path d="M12 4v9"/></g><text x="316.0" y="228.0" font-family="'Plus Jakarta Sans','Inter','Segoe UI',Roboto,'Helvetica Neue',Arial,sans-serif" font-size="15" font-weight="700" fill="#1B2E1F" text-anchor="start" opacity="1">Sheesham study table</text><text x="316.0" y="252.0" font-family="'Plus Jakarta Sans','Inter','Segoe UI',Roboto,'Helvetica Neue',Arial,sans-serif" font-size="14" font-weight="700" fill="#007A59" text-anchor="start" opacity="1">₹8,499  ·  free delivery</text><rect x="316.0" y="270.0" width="87.9" height="27.0" rx="13.5" fill="#00926B"/><g transform="translate(326.0 276.8) scale(0.5625)" fill="none" stroke="#FFFFFF" stroke-width="2.2" stroke-linecap="round" stroke-linejoin="round"><path d="M16 10a4 4 0 0 1-8 0"/><path d="M3.103 6.034h17.794"/><path d="M3.4 5.467a2 2 0 0 0-.4 1.2V20a2 2 0 0 0 2 2h14a2 2 0 0 0 2-2V6.667a2 2 0 0 0-.4-1.2l-2-2.667A2 2 0 0 0 17 2H7a2 2 0 0 0-1.6.8z"/></g><text x="342.9" y="288.2" font-family="'Plus Jakarta Sans','Inter','Segoe UI',Roboto,'Helvetica Neue',Arial,sans-serif" font-size="13.5" font-weight="700" fill="#FFFFFF" text-anchor="start" opacity="1">Buy now</text><rect x="420.0" y="270.0" width="51.6" height="27.0" rx="13.5" fill="#F1F4EC"/><text x="430.0" y="288.2" font-family="'Plus Jakarta Sans','Inter','Segoe UI',Roboto,'Helvetica Neue',Arial,sans-serif" font-size="13.5" font-weight="700" fill="#1B2E1F" text-anchor="start" opacity="1">More</text><rect x="552.0" y="80.0" width="207.5" height="90.3" rx="12" fill="#FFFFFF" filter="url(#sh)"/><path d="M556 80 L545 80 L562 92 Z" fill="#FFFFFF" opacity="1"/><text x="564.0" y="106.0" font-family="'Plus Jakarta Sans','Inter','Segoe UI',Roboto,'Helvetica Neue',Arial,sans-serif" font-size="15.5" font-weight="400" fill="#1B2E1F" text-anchor="start" opacity="1">Hey John! Loved your</text><text x="564.0" y="127.3" font-family="'Plus Jakarta Sans','Inter','Segoe UI',Roboto,'Helvetica Neue',Arial,sans-serif" font-size="15.5" font-weight="400" fill="#1B2E1F" text-anchor="start" opacity="1">new lamp? Here&#x27;s our</text><text x="564.0" y="148.7" font-family="'Plus Jakarta Sans','Inter','Segoe UI',Roboto,'Helvetica Neue',Arial,sans-serif" font-size="15.5" font-weight="400" fill="#1B2E1F" text-anchor="start" opacity="1">study-table range 👇</text><text x="747.5" y="162.3" font-family="'Plus Jakarta Sans','Inter','Segoe UI',Roboto,'Helvetica Neue',Arial,sans-serif" font-size="10.540000000000001" font-weight="400" fill="#5F6F64" text-anchor="end" opacity="1">12:10</text><rect x="604.6" y="186.3" width="155.4" height="68.9" rx="12" fill="#D9FDD3" filter="url(#sh)"/><path d="M756.0 186.27999999999997 L767.0 186.27999999999997 L750.0 198.27999999999997 Z" fill="#D9FDD3" opacity="1"/><text x="616.6" y="212.2" font-family="'Plus Jakarta Sans','Inter','Segoe UI',Roboto,'Helvetica Neue',Arial,sans-serif" font-size="15.5" font-weight="400" fill="#1B2E1F" text-anchor="start" opacity="1">Do you have it</text><text x="616.6" y="233.6" font-family="'Plus Jakarta Sans','Inter','Segoe UI',Roboto,'Helvetica Neue',Arial,sans-serif" font-size="15.5" font-weight="400" fill="#1B2E1F" text-anchor="start" opacity="1">in walnut?</text><text x="748.0" y="247.2" font-family="'Plus Jakarta Sans','Inter','Segoe UI',Roboto,'Helvetica Neue',Arial,sans-serif" font-size="10.540000000000001" font-weight="400" fill="#5F6F64" text-anchor="end" opacity="1">12:14</text><g transform="translate(707.0 234.6) scale(0.5167)" fill="none" stroke="#4FA3F7" stroke-width="2.4" stroke-linecap="round" stroke-linejoin="round"><path d="M18 6 7 17l-5-5"/><path d="m22 10-7.5 7.5L13 16"/></g><rect x="60.0" y="300.0" width="162.7" height="28.0" rx="14.0" fill="#FBF0DC"/><g transform="translate(70.0 307.0) scale(0.5833)" fill="none" stroke="#8A5A0B" stroke-width="2.2" stroke-linecap="round" stroke-linejoin="round"><rect width="7" height="7" x="3" y="3" rx="1"/><rect width="7" height="7" x="14" y="3" rx="1"/><rect width="7" height="7" x="14" y="14" rx="1"/><rect width="7" height="7" x="3" y="14" rx="1"/></g><text x="87.5" y="318.9" font-family="'Plus Jakarta Sans','Inter','Segoe UI',Roboto,'Helvetica Neue',Arial,sans-serif" font-size="14" font-weight="700" fill="#8A5A0B" text-anchor="start" opacity="1">Catalog-led selling</text></svg>