<svg xmlns="http://www.w3.org/2000/svg" width="800" height="396" viewBox="0 0 800 396"><defs><filter id="sh" x="-20%" y="-20%" width="140%" height="160%"><feDropShadow dx="0" dy="6" stdDeviation="9" flood-color="#000000" flood-opacity="0.28"/></filter><linearGradient id="bg1" x1="0" y1="0" x2="1" y2="1"><stop offset="0" stop-color="#0B3A2B"/><stop offset="1" stop-color="#05140F"/></linearGradient><pattern id="dots2" width="22" height="22" patternUnits="userSpaceOnUse"><circle cx="2" cy="2" r="1.2" fill="#FFFFFF" opacity="0.07"/></pattern><radialGradient id="glow3" cx="0.85" cy="0.85" r="0.6"><stop offset="0" stop-color="#00C48F" stop-opacity="0.35"/><stop offset="1" stop-color="#00C48F" stop-opacity="0"/></radialGradient><linearGradient id="sky4" x1="0" y1="0" x2="0" y2="1"><stop offset="0" stop-color="#BFE3F7"/><stop offset="1" stop-color="#E8F5FC"/></linearGradient></defs><rect width="800" height="396" fill="url(#bg1)"/><rect width="800" height="396" fill="url(#dots2)"/><rect width="800" height="396" fill="url(#glow3)"/><circle cx="74.0" cy="74.0" r="34" fill="#0F766E" filter="url(#sh)"/><g transform="translate(56.1 56.1) scale(1.4875)" fill="none" stroke="#FFFFFF" stroke-width="2" stroke-linecap="round" stroke-linejoin="round"><path d="M10 12h4"/><path d="M10 8h4"/><path d="M14 21v-3a2 2 0 0 0-4 0v3"/><path d="M6 10H4a2 2 0 0 0-2 2v7a2 2 0 0 0 2 2h16a2 2 0 0 0 2-2V9a2 2 0 0 0-2-2h-2"/><path d="M6 21V5a2 2 0 0 1 2-2h8a2 2 0 0 1 2 2v16"/></g><rect x="507.3" y="52.0" width="232.7" height="70.1" rx="12" fill="#D9FDD3" filter="url(#sh)"/><path d="M736.0 52 L747.0 52 L730.0 64 Z" fill="#D9FDD3" opacity="1"/><text x="519.3" y="78.4" font-family="'Plus Jakarta Sans','Inter','Segoe UI',Roboto,'Helvetica Neue',Arial,sans-serif" font-size="16" font-weight="400" fill="#1B2E1F" text-anchor="start" opacity="1">Can I see photos of the</text><text x="519.3" y="100.5" font-family="'Plus Jakarta Sans','Inter','Segoe UI',Roboto,'Helvetica Neue',Arial,sans-serif" font-size="16" font-weight="400" fill="#1B2E1F" text-anchor="start" opacity="1">3BHK at Lake View?</text><text x="728.0" y="114.1" font-family="'Plus Jakarta Sans','Inter','Segoe UI',Roboto,'Helvetica Neue',Arial,sans-serif" font-size="10.88" font-weight="400" fill="#5F6F64" text-anchor="end" opacity="1">4:31</text><g transform="translate(691.8 101.3) scale(0.5333)" fill="none" stroke="#4FA3F7" stroke-width="2.4" stroke-linecap="round" stroke-linejoin="round"><path d="M18 6 7 17l-5-5"/><path d="m22 10-7.5 7.5L13 16"/></g><rect x="300.0" y="138.1" width="300.0" height="236.0" rx="14" fill="#FFFFFF" filter="url(#sh)"/><rect x="312.0" y="150.1" width="276.0" height="130.0" rx="10" fill="url(#sky4)"/><g transform="translate(400.0 162.1) scale(4.1667)" fill="none" stroke="#0F766E" stroke-width="1.4" stroke-linecap="round" stroke-linejoin="round"><path d="M12 10h.01"/><path d="M12 14h.01"/><path d="M12 6h.01"/><path d="M16 10h.01"/><path d="M16 14h.01"/><path d="M16 6h.01"/><path d="M8 10h.01"/><path d="M8 14h.01"/><path d="M8 6h.01"/><path d="M9 22v-3a1 1 0 0 1 1-1h4a1 1 0 0 1 1 1v3"/><rect x="4" y="2" width="16" height="20" rx="2"/></g><text x="316.0" y="306.1" font-family="'Plus Jakarta Sans','Inter','Segoe UI',Roboto,'Helvetica Neue',Arial,sans-serif" font-size="15" font-weight="700" fill="#1B2E1F" text-anchor="start" opacity="1">Lake View Residences · 3BHK</text><text x="316.0" y="330.1" font-family="'Plus Jakarta Sans','Inter','Segoe UI',Roboto,'Helvetica Neue',Arial,sans-serif" font-size="14" font-weight="700" fill="#007A59" text-anchor="start" opacity="1">₹1.2 Cr · 1,650 sq ft</text><rect x="616.0" y="282.1" width="134.6" height="28.0" rx="14.0" fill="#00926B"/><g transform="translate(626.0 289.1) scale(0.5833)" fill="none" stroke="#FFFFFF" stroke-width="2.2" stroke-linecap="round" stroke-linejoin="round"><path d="M20 10c0 4.993-5.539 10.193-7.399 11.799a1 1 0 0 1-1.202 0C9.539 20.193 4 14.993 4 10a8 8 0 0 1 16 0"/><circle cx="12" cy="10" r="3"/></g><text x="643.5" y="301.0" font-family="'Plus Jakarta Sans','Inter','Segoe UI',Roboto,'Helvetica Neue',Arial,sans-serif" font-size="14" font-weight="700" fill="#FFFFFF" text-anchor="start" opacity="1">Book site visit</text><rect x="616.0" y="328.1" width="149.2" height="28.0" rx="14.0" fill="#FFFFFF"/><g transform="translate(626.0 335.1) scale(0.5833)" fill="none" stroke="#1B2E1F" stroke-width="2.2" stroke-linecap="round" stroke-linejoin="round"><path d="M6 22a2 2 0 0 1-2-2V4a2 2 0 0 1 2-2h8a2.4 2.4 0 0 1 1.704.706l3.588 3.588A2.4 2.4 0 0 1 20 8v12a2 2 0 0 1-2 2z"/><path d="M14 2v5a1 1 0 0 0 1 1h5"/><path d="M12 18v-6"/><path d="m9 15 3 3 3-3"/></g><text x="643.5" y="347.0" font-family="'Plus Jakarta Sans','Inter','Segoe UI',Roboto,'Helvetica Neue',Arial,sans-serif" font-size="14" font-weight="700" fill="#1B2E1F" text-anchor="start" opacity="1">Brochure (PDF)</text><rect x="60.0" y="300.0" width="168.4" height="28.0" rx="14.0" fill="#DDF3F0"/><g transform="translate(70.0 307.0) scale(0.5833)" fill="none" stroke="#0F766E" stroke-width="2.2" stroke-linecap="round" stroke-linejoin="round"><path d="M2.586 17.414A2 2 0 0 0 2 18.828V21a1 1 0 0 0 1 1h3a1 1 0 0 0 1-1v-1a1 1 0 0 1 1-1h1a1 1 0 0 0 1-1v-1a1 1 0 0 1 1-1h.172a2 2 0 0 0 1.414-.586l.814-.814a6.5 6.5 0 1 0-4-4z"/><circle cx="16.5" cy="7.5" r=".5" fill="currentColor"/></g><text x="87.5" y="318.9" font-family="'Plus Jakarta Sans','Inter','Segoe UI',Roboto,'Helvetica Neue',Arial,sans-serif" font-size="14" font-weight="700" fill="#0F766E" text-anchor="start" opacity="1">Site-visit bookings</text></svg>