<svg xmlns="http://www.w3.org/2000/svg" width="800" height="352" viewBox="0 0 800 352"><defs><filter id="sh" x="-20%" y="-20%" width="140%" height="160%"><feDropShadow dx="0" dy="6" stdDeviation="9" flood-color="#000000" flood-opacity="0.28"/></filter><linearGradient id="bg1" x1="0" y1="0" x2="1" y2="1"><stop offset="0" stop-color="#0B3A2B"/><stop offset="1" stop-color="#05140F"/></linearGradient><pattern id="dots2" width="22" height="22" patternUnits="userSpaceOnUse"><circle cx="2" cy="2" r="1.2" fill="#FFFFFF" opacity="0.07"/></pattern><radialGradient id="glow3" cx="0.15" cy="0.2" r="0.6"><stop offset="0" stop-color="#00C48F" stop-opacity="0.35"/><stop offset="1" stop-color="#00C48F" stop-opacity="0"/></radialGradient></defs><rect width="800" height="352" fill="url(#bg1)"/><rect width="800" height="352" fill="url(#dots2)"/><rect width="800" height="352" fill="url(#glow3)"/><rect x="223.2" y="40.0" width="206.8" height="64.5" rx="12" fill="#D9FDD3" filter="url(#sh)"/><path d="M426.0 40 L437.0 40 L420.0 52 Z" fill="#D9FDD3" opacity="1"/><text x="235.2" y="67.3" font-family="'Plus Jakarta Sans','Inter','Segoe UI',Roboto,'Helvetica Neue',Arial,sans-serif" font-size="17" font-weight="400" fill="#1B2E1F" text-anchor="start" opacity="1">Need a 2BHK under ₹60L</text><text x="235.2" y="90.8" font-family="'Plus Jakarta Sans','Inter','Segoe UI',Roboto,'Helvetica Neue',Arial,sans-serif" font-size="17" font-weight="400" fill="#1B2E1F" text-anchor="start" opacity="1">near Whitefield</text><circle cx="72.0" cy="144.5" r="20" fill="#8B5CF6" filter="url(#sh)"/><g transform="translate(61.5 134.0) scale(0.8750)" fill="none" stroke="#FFFFFF" stroke-width="2" stroke-linecap="round" stroke-linejoin="round"><path d="M12 8V4H8"/><rect width="16" height="12" x="4" y="8" rx="2"/><path d="M2 14h2"/><path d="M20 14h2"/><path d="M15 13v2"/><path d="M9 13v2"/></g><rect x="108.0" y="122.5" width="340.0" height="190.0" rx="14" fill="#FFFFFF" filter="url(#sh)"/><text x="126.0" y="152.5" font-family="'Plus Jakarta Sans','Inter','Segoe UI',Roboto,'Helvetica Neue',Arial,sans-serif" font-size="16" font-weight="700" fill="#1B2E1F" text-anchor="start" opacity="1">Found 3 matches for you 🏡</text><rect x="126.0" y="168.5" width="44.0" height="40.0" rx="8" fill="#DDEFE6"/><g transform="translate(136.0 177.5) scale(0.9167)" fill="none" stroke="#007A59" stroke-width="2" stroke-linecap="round" stroke-linejoin="round"><path d="M10 12h4"/><path d="M10 8h4"/><path d="M14 21v-3a2 2 0 0 0-4 0v3"/><path d="M6 10H4a2 2 0 0 0-2 2v7a2 2 0 0 0 2 2h16a2 2 0 0 0 2-2V9a2 2 0 0 0-2-2h-2"/><path d="M6 21V5a2 2 0 0 1 2-2h8a2 2 0 0 1 2 2v16"/></g><text x="182.0" y="186.5" font-family="'Plus Jakarta Sans','Inter','Segoe UI',Roboto,'Helvetica Neue',Arial,sans-serif" font-size="14.5" font-weight="600" fill="#1B2E1F" text-anchor="start" opacity="1">Palm Grove · 2BHK</text><text x="182.0" y="204.5" font-family="'Plus Jakarta Sans','Inter','Segoe UI',Roboto,'Helvetica Neue',Arial,sans-serif" font-size="13.5" font-weight="700" fill="#007A59" text-anchor="start" opacity="1">₹54L</text><rect x="126.0" y="220.5" width="44.0" height="40.0" rx="8" fill="#DDEFE6"/><g transform="translate(136.0 229.5) scale(0.9167)" fill="none" stroke="#007A59" stroke-width="2" stroke-linecap="round" stroke-linejoin="round"><path d="M10 12h4"/><path d="M10 8h4"/><path d="M14 21v-3a2 2 0 0 0-4 0v3"/><path d="M6 10H4a2 2 0 0 0-2 2v7a2 2 0 0 0 2 2h16a2 2 0 0 0 2-2V9a2 2 0 0 0-2-2h-2"/><path d="M6 21V5a2 2 0 0 1 2-2h8a2 2 0 0 1 2 2v16"/></g><text x="182.0" y="238.5" font-family="'Plus Jakarta Sans','Inter','Segoe UI',Roboto,'Helvetica Neue',Arial,sans-serif" font-size="14.5" font-weight="600" fill="#1B2E1F" text-anchor="start" opacity="1">Green Vista · 2BHK</text><text x="182.0" y="256.5" font-family="'Plus Jakarta Sans','Inter','Segoe UI',Roboto,'Helvetica Neue',Arial,sans-serif" font-size="13.5" font-weight="700" fill="#007A59" text-anchor="start" opacity="1">₹58L</text><rect x="126.0" y="276.5" width="126.4" height="26.0" rx="13.0" fill="#00926B"/><g transform="translate(136.0 283.0) scale(0.5417)" fill="none" stroke="#FFFFFF" stroke-width="2.2" stroke-linecap="round" stroke-linejoin="round"><path d="M8 2v4"/><path d="M16 2v4"/><rect width="18" height="18" x="3" y="4" rx="2"/><path d="M3 10h18"/><path d="m9 16 2 2 4-4"/></g><text x="152.2" y="294.0" font-family="'Plus Jakarta Sans','Inter','Segoe UI',Roboto,'Helvetica Neue',Arial,sans-serif" font-size="13" font-weight="700" fill="#FFFFFF" text-anchor="start" opacity="1">Book site visit</text><rect x="500.0" y="170.0" width="260.0" height="120.0" rx="14" fill="#FFFFFF" filter="url(#sh)"/><text x="522.0" y="204.0" font-family="'Plus Jakarta Sans','Inter','Segoe UI',Roboto,'Helvetica Neue',Arial,sans-serif" font-size="15" font-weight="700" fill="#1B2E1F" text-anchor="start" opacity="1">Lead qualified by AI</text><text x="522.0" y="232.0" font-family="'Plus Jakarta Sans','Inter','Segoe UI',Roboto,'Helvetica Neue',Arial,sans-serif" font-size="13" font-weight="600" fill="#5F6F64" text-anchor="start" opacity="1">Budget</text><text x="616.0" y="232.0" font-family="'Plus Jakarta Sans','Inter','Segoe UI',Roboto,'Helvetica Neue',Arial,sans-serif" font-size="13.5" font-weight="700" fill="#1B2E1F" text-anchor="start" opacity="1">₹60L</text><text x="522.0" y="254.0" font-family="'Plus Jakarta Sans','Inter','Segoe UI',Roboto,'Helvetica Neue',Arial,sans-serif" font-size="13" font-weight="600" fill="#5F6F64" text-anchor="start" opacity="1">Area</text><text x="616.0" y="254.0" font-family="'Plus Jakarta Sans','Inter','Segoe UI',Roboto,'Helvetica Neue',Arial,sans-serif" font-size="13.5" font-weight="700" fill="#1B2E1F" text-anchor="start" opacity="1">Whitefield</text><text x="522.0" y="276.0" font-family="'Plus Jakarta Sans','Inter','Segoe UI',Roboto,'Helvetica Neue',Arial,sans-serif" font-size="13" font-weight="600" fill="#5F6F64" text-anchor="start" opacity="1">Intent</text><text x="616.0" y="276.0" font-family="'Plus Jakarta Sans','Inter','Segoe UI',Roboto,'Helvetica Neue',Arial,sans-serif" font-size="13.5" font-weight="700" fill="#1B2E1F" text-anchor="start" opacity="1">Hot 🔥</text></svg>