<svg xmlns="http://www.w3.org/2000/svg" width="896" height="640" viewBox="0 0 896 640"><defs><filter id="sh" x="-20%" y="-20%" width="140%" height="160%"><feDropShadow dx="0" dy="6" stdDeviation="9" flood-color="#000000" flood-opacity="0.28"/></filter><linearGradient id="bg1" x1="0" y1="0" x2="1" y2="1"><stop offset="0" stop-color="#0B3A2B"/><stop offset="1" stop-color="#05140F"/></linearGradient><pattern id="dots2" width="22" height="22" patternUnits="userSpaceOnUse"><circle cx="2" cy="2" r="1.2" fill="#FFFFFF" opacity="0.07"/></pattern><radialGradient id="glow3" cx="0.8" cy="0.85" r="0.6"><stop offset="0" stop-color="#00C48F" stop-opacity="0.35"/><stop offset="1" stop-color="#00C48F" stop-opacity="0"/></radialGradient><clipPath id="ph4"><rect x="120" y="40" width="320" height="560" rx="26"/></clipPath><pattern id="wp5" width="26" height="26" patternUnits="userSpaceOnUse"><circle cx="4" cy="4" r="1.4" fill="#00926B" opacity="0.08"/></pattern></defs><rect width="896" height="640" fill="url(#bg1)"/><rect width="896" height="640" fill="url(#dots2)"/><rect width="896" height="640" fill="url(#glow3)"/><rect x="112.0" y="32.0" width="336.0" height="576.0" rx="34" fill="#0B0F0D" filter="url(#sh)"/><g clip-path="url(#ph4)"><rect x="120.0" y="40.0" width="320.0" height="560.0" rx="0" fill="#F1F3E8"/><rect x="120.0" y="40.0" width="320.0" height="560.0" rx="0" fill="url(#wp5)"/><rect x="120.0" y="40.0" width="320.0" height="64.0" rx="0" fill="#007A59"/><g transform="translate(128.0 60.0) scale(0.9167)" fill="none" stroke="#FFFFFF" stroke-width="2.4" stroke-linecap="round" stroke-linejoin="round"><path d="m15 18-6-6 6-6"/></g><circle cx="170.0" cy="72.0" r="17" fill="#B4547A"/><text x="170.0" y="78.1" font-family="'Plus Jakarta Sans','Inter','Segoe UI',Roboto,'Helvetica Neue',Arial,sans-serif" font-size="16.15" font-weight="700" fill="#FFFFFF" text-anchor="middle" opacity="1">GS</text><text x="196.0" y="69.0" font-family="'Plus Jakarta Sans','Inter','Segoe UI',Roboto,'Helvetica Neue',Arial,sans-serif" font-size="15" font-weight="700" fill="#FFFFFF" text-anchor="start" opacity="1">Glow Skin Clinic</text><text x="196.0" y="87.0" font-family="'Plus Jakarta Sans','Inter','Segoe UI',Roboto,'Helvetica Neue',Arial,sans-serif" font-size="11.5" font-weight="400" fill="#FFFFFF" text-anchor="start" opacity="0.8">online</text><g transform="translate(406.0 62.0) scale(0.7500)" fill="none" stroke="#FFFFFF" stroke-width="2" stroke-linecap="round" stroke-linejoin="round"><path d="M13.832 16.568a1 1 0 0 0 1.213-.303l.355-.465A2 2 0 0 1 17 15h3a2 2 0 0 1 2 2v3a2 2 0 0 1-2 2A18 18 0 0 1 2 4a2 2 0 0 1 2-2h3a2 2 0 0 1 2 2v3a2 2 0 0 1-.8 1.6l-.468.351a1 1 0 0 0-.292 1.233 14 14 0 0 0 6.392 6.384"/></g><rect x="134.0" y="120.0" width="241.3" height="102.2" rx="12" fill="#FFFFFF" filter="url(#sh)"/><path d="M138 120 L127 120 L144 132 Z" fill="#FFFFFF" opacity="1"/><text x="146.0" y="145.5" font-family="'Plus Jakarta Sans','Inter','Segoe UI',Roboto,'Helvetica Neue',Arial,sans-serif" font-size="15" font-weight="400" fill="#1B2E1F" text-anchor="start" opacity="1">Hi Ananya 👋 Book your free</text><text x="146.0" y="166.2" font-family="'Plus Jakarta Sans','Inter','Segoe UI',Roboto,'Helvetica Neue',Arial,sans-serif" font-size="15" font-weight="400" fill="#1B2E1F" text-anchor="start" opacity="1">skin consultation below.</text><text x="363.3" y="179.7" font-family="'Plus Jakarta Sans','Inter','Segoe UI',Roboto,'Helvetica Neue',Arial,sans-serif" font-size="10.200000000000001" font-weight="400" fill="#5F6F64" text-anchor="end" opacity="1">11:20</text><line x1="134.0" y1="187.7" x2="375.3" y2="187.7" stroke="#E3E8DC" stroke-width="1.2" stroke-linecap="round" opacity="1"/><g transform="translate(204.8 197.4) scale(0.6250)" fill="none" stroke="#1E88C8" stroke-width="2" stroke-linecap="round" stroke-linejoin="round"><rect width="8" height="4" x="8" y="2" rx="1" ry="1"/><path d="M16 4h2a2 2 0 0 1 2 2v14a2 2 0 0 1-2 2H6a2 2 0 0 1-2-2V6a2 2 0 0 1 2-2h2"/><path d="M12 11h4"/><path d="M12 16h4"/><path d="M8 11h.01"/><path d="M8 16h.01"/></g><text x="222.8" y="209.9" font-family="'Plus Jakarta Sans','Inter','Segoe UI',Roboto,'Helvetica Neue',Arial,sans-serif" font-size="14.25" font-weight="600" fill="#1E88C8" text-anchor="start" opacity="1">Fill the form</text><rect x="120.0" y="250.0" width="320.0" height="350.0" rx="22" fill="#FFFFFF" filter="url(#sh)"/><rect x="260.0" y="260.0" width="40.0" height="5.0" rx="2.5" fill="#E3E8DC"/><text x="142.0" y="296.0" font-family="'Plus Jakarta Sans','Inter','Segoe UI',Roboto,'Helvetica Neue',Arial,sans-serif" font-size="18" font-weight="700" fill="#1B2E1F" text-anchor="start" opacity="1">Book a consultation</text><text x="142.0" y="324.0" font-family="'Plus Jakarta Sans','Inter','Segoe UI',Roboto,'Helvetica Neue',Arial,sans-serif" font-size="12" font-weight="600" fill="#5F6F64" text-anchor="start" opacity="1">Full name</text><rect x="142.0" y="332.0" width="276.0" height="38.0" rx="9" fill="#F1F3E8" stroke="#E3E8DC" stroke-width="1"/><text x="156.0" y="357.0" font-family="'Plus Jakarta Sans','Inter','Segoe UI',Roboto,'Helvetica Neue',Arial,sans-serif" font-size="14" font-weight="400" fill="#1B2E1F" text-anchor="start" opacity="1">Ananya Sharma</text><text x="142.0" y="394.0" font-family="'Plus Jakarta Sans','Inter','Segoe UI',Roboto,'Helvetica Neue',Arial,sans-serif" font-size="12" font-weight="600" fill="#5F6F64" text-anchor="start" opacity="1">Concern</text><rect x="142.0" y="402.0" width="276.0" height="38.0" rx="9" fill="#F1F3E8" stroke="#E3E8DC" stroke-width="1"/><text x="156.0" y="427.0" font-family="'Plus Jakarta Sans','Inter','Segoe UI',Roboto,'Helvetica Neue',Arial,sans-serif" font-size="14" font-weight="400" fill="#1B2E1F" text-anchor="start" opacity="1">Acne &amp; scars</text><text x="142.0" y="464.0" font-family="'Plus Jakarta Sans','Inter','Segoe UI',Roboto,'Helvetica Neue',Arial,sans-serif" font-size="12" font-weight="600" fill="#5F6F64" text-anchor="start" opacity="1">Preferred date</text><rect x="142.0" y="472.0" width="276.0" height="38.0" rx="9" fill="#F1F3E8" stroke="#E3E8DC" stroke-width="1"/><text x="156.0" y="497.0" font-family="'Plus Jakarta Sans','Inter','Segoe UI',Roboto,'Helvetica Neue',Arial,sans-serif" font-size="14" font-weight="400" fill="#1B2E1F" text-anchor="start" opacity="1">Sat, 12 Oct · 4 PM</text><rect x="142.0" y="540.0" width="276.0" height="42.0" rx="21" fill="#00926B"/><text x="280.0" y="567.0" font-family="'Plus Jakarta Sans','Inter','Segoe UI',Roboto,'Helvetica Neue',Arial,sans-serif" font-size="15" font-weight="700" fill="#FFFFFF" text-anchor="middle" opacity="1">Submit</text></g><path d="M450 420 C 480 420, 470 300, 500 300" fill="none" stroke="#00C48F" stroke-width="2.5" stroke-linecap="round" stroke-linejoin="round" stroke-dasharray="6 7" opacity="1"/><rect x="500.0" y="200.0" width="340.0" height="230.0" rx="14" fill="#FFFFFF" filter="url(#sh)"/><circle cx="536.0" cy="238.0" r="18" fill="#00926B"/><g transform="translate(526.5 228.6) scale(0.7875)" fill="none" stroke="#FFFFFF" stroke-width="2" stroke-linecap="round" stroke-linejoin="round"><path d="m16 11 2 2 4-4"/><path d="M16 21v-2a4 4 0 0 0-4-4H6a4 4 0 0 0-4 4v2"/><circle cx="9" cy="7" r="4"/></g><text x="564.0" y="234.0" font-family="'Plus Jakarta Sans','Inter','Segoe UI',Roboto,'Helvetica Neue',Arial,sans-serif" font-size="16" font-weight="700" fill="#1B2E1F" text-anchor="start" opacity="1">New lead captured</text><text x="564.0" y="254.0" font-family="'Plus Jakarta Sans','Inter','Segoe UI',Roboto,'Helvetica Neue',Arial,sans-serif" font-size="12.5" font-weight="400" fill="#5F6F64" text-anchor="start" opacity="1">saved to contacts &amp; pipeline</text><text x="522.0" y="290.0" font-family="'Plus Jakarta Sans','Inter','Segoe UI',Roboto,'Helvetica Neue',Arial,sans-serif" font-size="13" font-weight="600" fill="#5F6F64" text-anchor="start" opacity="1">Name</text><text x="630.0" y="290.0" font-family="'Plus Jakarta Sans','Inter','Segoe UI',Roboto,'Helvetica Neue',Arial,sans-serif" font-size="13.5" font-weight="600" fill="#1B2E1F" text-anchor="start" opacity="1">Ananya Sharma</text><text x="522.0" y="322.0" font-family="'Plus Jakarta Sans','Inter','Segoe UI',Roboto,'Helvetica Neue',Arial,sans-serif" font-size="13" font-weight="600" fill="#5F6F64" text-anchor="start" opacity="1">Concern</text><text x="630.0" y="322.0" font-family="'Plus Jakarta Sans','Inter','Segoe UI',Roboto,'Helvetica Neue',Arial,sans-serif" font-size="13.5" font-weight="600" fill="#1B2E1F" text-anchor="start" opacity="1">Acne &amp; scars</text><text x="522.0" y="354.0" font-family="'Plus Jakarta Sans','Inter','Segoe UI',Roboto,'Helvetica Neue',Arial,sans-serif" font-size="13" font-weight="600" fill="#5F6F64" text-anchor="start" opacity="1">Slot</text><text x="630.0" y="354.0" font-family="'Plus Jakarta Sans','Inter','Segoe UI',Roboto,'Helvetica Neue',Arial,sans-serif" font-size="13.5" font-weight="600" fill="#1B2E1F" text-anchor="start" opacity="1">Sat 4 PM</text><text x="522.0" y="386.0" font-family="'Plus Jakarta Sans','Inter','Segoe UI',Roboto,'Helvetica Neue',Arial,sans-serif" font-size="13" font-weight="600" fill="#5F6F64" text-anchor="start" opacity="1">Stage</text><text x="630.0" y="386.0" font-family="'Plus Jakarta Sans','Inter','Segoe UI',Roboto,'Helvetica Neue',Arial,sans-serif" font-size="13.5" font-weight="600" fill="#1B2E1F" text-anchor="start" opacity="1">Consultation booked</text></svg>