<svg xmlns="http://www.w3.org/2000/svg" width="896" height="640" viewBox="0 0 896 640"><defs><filter id="sh" x="-20%" y="-20%" width="140%" height="160%"><feDropShadow dx="0" dy="6" stdDeviation="9" flood-color="#000000" flood-opacity="0.28"/></filter><linearGradient id="bg1" x1="0" y1="0" x2="1" y2="1"><stop offset="0" stop-color="#0B3A2B"/><stop offset="1" stop-color="#05140F"/></linearGradient><pattern id="dots2" width="22" height="22" patternUnits="userSpaceOnUse"><circle cx="2" cy="2" r="1.2" fill="#FFFFFF" opacity="0.07"/></pattern><radialGradient id="glow3" cx="0.1" cy="0.1" r="0.6"><stop offset="0" stop-color="#00C48F" stop-opacity="0.35"/><stop offset="1" stop-color="#00C48F" stop-opacity="0"/></radialGradient></defs><rect width="896" height="640" fill="url(#bg1)"/><rect width="896" height="640" fill="url(#dots2)"/><rect width="896" height="640" fill="url(#glow3)"/><rect x="40.0" y="50.0" width="816.0" height="540.0" rx="14" fill="#FFFFFF" filter="url(#sh)"/><rect x="40.0" y="50.0" width="816.0" height="36.0" rx="0" fill="#F4F6F0"/><rect x="40.0" y="50.0" width="816.0" height="36.0" rx="14" fill="#F4F6F0"/><rect x="40.0" y="70.0" width="816.0" height="16.0" rx="0" fill="#F4F6F0"/><circle cx="58.0" cy="68.0" r="5" fill="#F2766B"/><circle cx="74.0" cy="68.0" r="5" fill="#F5B841"/><circle cx="90.0" cy="68.0" r="5" fill="#3CC37A"/><text x="448.0" y="73.0" font-family="'Plus Jakarta Sans','Inter','Segoe UI',Roboto,'Helvetica Neue',Arial,sans-serif" font-size="12.5" font-weight="600" fill="#5F6F64" text-anchor="middle" opacity="1">Template library</text><line x1="40.0" y1="86.0" x2="856.0" y2="86.0" stroke="#E3E8DC" stroke-width="1" stroke-linecap="round" opacity="1"/><rect x="64.0" y="104.0" width="32.8" height="26.0" rx="13.0" fill="#00926B"/><text x="74.0" y="121.5" font-family="'Plus Jakarta Sans','Inter','Segoe UI',Roboto,'Helvetica Neue',Arial,sans-serif" font-size="13" font-weight="700" fill="#FFFFFF" text-anchor="start" opacity="1">All</text><rect x="106.8" y="104.0" width="84.1" height="26.0" rx="13.0" fill="#F1F4EC"/><text x="116.8" y="121.5" font-family="'Plus Jakarta Sans','Inter','Segoe UI',Roboto,'Helvetica Neue',Arial,sans-serif" font-size="13" font-weight="700" fill="#5F6F64" text-anchor="start" opacity="1">Marketing</text><rect x="200.9" y="104.0" width="58.7" height="26.0" rx="13.0" fill="#F1F4EC"/><text x="210.9" y="121.5" font-family="'Plus Jakarta Sans','Inter','Segoe UI',Roboto,'Helvetica Neue',Arial,sans-serif" font-size="13" font-weight="700" fill="#5F6F64" text-anchor="start" opacity="1">Utility</text><rect x="269.6" y="104.0" width="118.6" height="26.0" rx="13.0" fill="#F1F4EC"/><text x="279.6" y="121.5" font-family="'Plus Jakarta Sans','Inter','Segoe UI',Roboto,'Helvetica Neue',Arial,sans-serif" font-size="13" font-weight="700" fill="#5F6F64" text-anchor="start" opacity="1">Authentication</text><rect x="64.0" y="160.0" width="244.0" height="420.0" rx="14" fill="#FAFBF7" stroke="#E3E8DC" stroke-width="1"/><rect x="78.0" y="174.0" width="216.0" height="120.0" rx="10" fill="#F5B841" opacity="0.18"/><circle cx="186.0" cy="234.0" r="30" fill="#F5B841"/><g transform="translate(170.2 218.2) scale(1.3125)" fill="none" stroke="#FFFFFF" stroke-width="2" stroke-linecap="round" stroke-linejoin="round"><rect x="3" y="8" width="18" height="4" rx="1"/><path d="M12 8v13"/><path d="M19 12v7a2 2 0 0 1-2 2H7a2 2 0 0 1-2-2v-7"/><path d="M7.5 8a2.5 2.5 0 0 1 0-5A4.8 8 0 0 1 12 8a4.8 8 0 0 1 4.5-5 2.5 2.5 0 0 1 0 5"/></g><text x="80.0" y="324.0" font-family="'Plus Jakarta Sans','Inter','Segoe UI',Roboto,'Helvetica Neue',Arial,sans-serif" font-size="16" font-weight="700" fill="#1B2E1F" text-anchor="start" opacity="1">Festive offer</text><rect x="80.0" y="336.0" width="79.2" height="24.0" rx="12.0" fill="#F1F4EC"/><text x="90.0" y="352.2" font-family="'Plus Jakarta Sans','Inter','Segoe UI',Roboto,'Helvetica Neue',Arial,sans-serif" font-size="12" font-weight="700" fill="#5F6F64" text-anchor="start" opacity="1">Marketing</text><rect x="184.0" y="336.0" width="92.6" height="24.0" rx="12.0" fill="#E6F6F1"/><g transform="translate(194.0 342.0) scale(0.5000)" fill="none" stroke="#007A59" stroke-width="2.2" stroke-linecap="round" stroke-linejoin="round"><path d="M20 6 9 17l-5-5"/></g><text x="209.0" y="352.2" font-family="'Plus Jakarta Sans','Inter','Segoe UI',Roboto,'Helvetica Neue',Arial,sans-serif" font-size="12" font-weight="700" fill="#007A59" text-anchor="start" opacity="1">Approved</text><text x="80.0" y="396.0" font-family="'Plus Jakarta Sans','Inter','Segoe UI',Roboto,'Helvetica Neue',Arial,sans-serif" font-size="13.5" font-weight="400" fill="#1B2E1F" text-anchor="start" opacity="1">Hi {{1}}, our festive sale</text><text x="80.0" y="418.0" font-family="'Plus Jakarta Sans','Inter','Segoe UI',Roboto,'Helvetica Neue',Arial,sans-serif" font-size="13.5" font-weight="400" fill="#1B2E1F" text-anchor="start" opacity="1">is live — 30% off till</text><text x="80.0" y="440.0" font-family="'Plus Jakarta Sans','Inter','Segoe UI',Roboto,'Helvetica Neue',Arial,sans-serif" font-size="13.5" font-weight="400" fill="#1B2E1F" text-anchor="start" opacity="1">Sunday. Shop now!</text><line x1="78.0" y1="478.0" x2="294.0" y2="478.0" stroke="#E3E8DC" stroke-width="1.2" stroke-linecap="round" opacity="1"/><text x="186.0" y="504.0" font-family="'Plus Jakarta Sans','Inter','Segoe UI',Roboto,'Helvetica Neue',Arial,sans-serif" font-size="14" font-weight="700" fill="#1E88C8" text-anchor="middle" opacity="1">Shop now</text><rect x="80.0" y="528.0" width="212.0" height="36.0" rx="18" fill="#00926B"/><text x="186.0" y="551.0" font-family="'Plus Jakarta Sans','Inter','Segoe UI',Roboto,'Helvetica Neue',Arial,sans-serif" font-size="13.5" font-weight="700" fill="#FFFFFF" text-anchor="middle" opacity="1">Use template</text><rect x="326.0" y="160.0" width="244.0" height="420.0" rx="14" fill="#FAFBF7" stroke="#E3E8DC" stroke-width="1"/><rect x="340.0" y="174.0" width="216.0" height="120.0" rx="10" fill="#4FA3F7" opacity="0.18"/><circle cx="448.0" cy="234.0" r="30" fill="#4FA3F7"/><g transform="translate(432.2 218.2) scale(1.3125)" fill="none" stroke="#FFFFFF" stroke-width="2" stroke-linecap="round" stroke-linejoin="round"><path d="M14 18V6a2 2 0 0 0-2-2H4a2 2 0 0 0-2 2v11a1 1 0 0 0 1 1h2"/><path d="M15 18H9"/><path d="M19 18h2a1 1 0 0 0 1-1v-3.65a1 1 0 0 0-.22-.624l-3.48-4.35A1 1 0 0 0 17.52 8H14"/><circle cx="17" cy="18" r="2"/><circle cx="7" cy="18" r="2"/></g><text x="342.0" y="324.0" font-family="'Plus Jakarta Sans','Inter','Segoe UI',Roboto,'Helvetica Neue',Arial,sans-serif" font-size="16" font-weight="700" fill="#1B2E1F" text-anchor="start" opacity="1">Order shipped</text><rect x="342.0" y="336.0" width="55.7" height="24.0" rx="12.0" fill="#F1F4EC"/><text x="352.0" y="352.2" font-family="'Plus Jakarta Sans','Inter','Segoe UI',Roboto,'Helvetica Neue',Arial,sans-serif" font-size="12" font-weight="700" fill="#5F6F64" text-anchor="start" opacity="1">Utility</text><rect x="446.0" y="336.0" width="92.6" height="24.0" rx="12.0" fill="#E6F6F1"/><g transform="translate(456.0 342.0) scale(0.5000)" fill="none" stroke="#007A59" stroke-width="2.2" stroke-linecap="round" stroke-linejoin="round"><path d="M20 6 9 17l-5-5"/></g><text x="471.0" y="352.2" font-family="'Plus Jakarta Sans','Inter','Segoe UI',Roboto,'Helvetica Neue',Arial,sans-serif" font-size="12" font-weight="700" fill="#007A59" text-anchor="start" opacity="1">Approved</text><text x="342.0" y="396.0" font-family="'Plus Jakarta Sans','Inter','Segoe UI',Roboto,'Helvetica Neue',Arial,sans-serif" font-size="13.5" font-weight="400" fill="#1B2E1F" text-anchor="start" opacity="1">Good news {{1}}! Order</text><text x="342.0" y="418.0" font-family="'Plus Jakarta Sans','Inter','Segoe UI',Roboto,'Helvetica Neue',Arial,sans-serif" font-size="13.5" font-weight="400" fill="#1B2E1F" text-anchor="start" opacity="1">#{{2}} is on its way and</text><text x="342.0" y="440.0" font-family="'Plus Jakarta Sans','Inter','Segoe UI',Roboto,'Helvetica Neue',Arial,sans-serif" font-size="13.5" font-weight="400" fill="#1B2E1F" text-anchor="start" opacity="1">arrives by {{3}}.</text><line x1="340.0" y1="478.0" x2="556.0" y2="478.0" stroke="#E3E8DC" stroke-width="1.2" stroke-linecap="round" opacity="1"/><text x="448.0" y="504.0" font-family="'Plus Jakarta Sans','Inter','Segoe UI',Roboto,'Helvetica Neue',Arial,sans-serif" font-size="14" font-weight="700" fill="#1E88C8" text-anchor="middle" opacity="1">Track order</text><rect x="342.0" y="528.0" width="212.0" height="36.0" rx="18" fill="#00926B"/><text x="448.0" y="551.0" font-family="'Plus Jakarta Sans','Inter','Segoe UI',Roboto,'Helvetica Neue',Arial,sans-serif" font-size="13.5" font-weight="700" fill="#FFFFFF" text-anchor="middle" opacity="1">Use template</text><rect x="588.0" y="160.0" width="244.0" height="420.0" rx="14" fill="#FAFBF7" stroke="#E3E8DC" stroke-width="1"/><rect x="602.0" y="174.0" width="216.0" height="120.0" rx="10" fill="#00926B" opacity="0.18"/><circle cx="710.0" cy="234.0" r="30" fill="#00926B"/><g transform="translate(694.2 218.2) scale(1.3125)" fill="none" stroke="#FFFFFF" stroke-width="2" stroke-linecap="round" stroke-linejoin="round"><path d="M8 2v4"/><path d="M16 2v4"/><rect width="18" height="18" x="3" y="4" rx="2"/><path d="M3 10h18"/><path d="m9 16 2 2 4-4"/></g><text x="604.0" y="324.0" font-family="'Plus Jakarta Sans','Inter','Segoe UI',Roboto,'Helvetica Neue',Arial,sans-serif" font-size="16" font-weight="700" fill="#1B2E1F" text-anchor="start" opacity="1">Appointment</text><rect x="604.0" y="336.0" width="55.7" height="24.0" rx="12.0" fill="#F1F4EC"/><text x="614.0" y="352.2" font-family="'Plus Jakarta Sans','Inter','Segoe UI',Roboto,'Helvetica Neue',Arial,sans-serif" font-size="12" font-weight="700" fill="#5F6F64" text-anchor="start" opacity="1">Utility</text><rect x="708.0" y="336.0" width="92.6" height="24.0" rx="12.0" fill="#E6F6F1"/><g transform="translate(718.0 342.0) scale(0.5000)" fill="none" stroke="#007A59" stroke-width="2.2" stroke-linecap="round" stroke-linejoin="round"><path d="M20 6 9 17l-5-5"/></g><text x="733.0" y="352.2" font-family="'Plus Jakarta Sans','Inter','Segoe UI',Roboto,'Helvetica Neue',Arial,sans-serif" font-size="12" font-weight="700" fill="#007A59" text-anchor="start" opacity="1">Approved</text><text x="604.0" y="396.0" font-family="'Plus Jakarta Sans','Inter','Segoe UI',Roboto,'Helvetica Neue',Arial,sans-serif" font-size="13.5" font-weight="400" fill="#1B2E1F" text-anchor="start" opacity="1">Reminder: your visit with</text><text x="604.0" y="418.0" font-family="'Plus Jakarta Sans','Inter','Segoe UI',Roboto,'Helvetica Neue',Arial,sans-serif" font-size="13.5" font-weight="400" fill="#1B2E1F" text-anchor="start" opacity="1">{{1}} is tomorrow at</text><text x="604.0" y="440.0" font-family="'Plus Jakarta Sans','Inter','Segoe UI',Roboto,'Helvetica Neue',Arial,sans-serif" font-size="13.5" font-weight="400" fill="#1B2E1F" text-anchor="start" opacity="1">{{2}}. Reply to reschedule.</text><line x1="602.0" y1="478.0" x2="818.0" y2="478.0" stroke="#E3E8DC" stroke-width="1.2" stroke-linecap="round" opacity="1"/><text x="710.0" y="504.0" font-family="'Plus Jakarta Sans','Inter','Segoe UI',Roboto,'Helvetica Neue',Arial,sans-serif" font-size="14" font-weight="700" fill="#1E88C8" text-anchor="middle" opacity="1">Confirm</text><rect x="604.0" y="528.0" width="212.0" height="36.0" rx="18" fill="#00926B"/><text x="710.0" y="551.0" font-family="'Plus Jakarta Sans','Inter','Segoe UI',Roboto,'Helvetica Neue',Arial,sans-serif" font-size="13.5" font-weight="700" fill="#FFFFFF" text-anchor="middle" opacity="1">Use template</text><circle cx="836.0" cy="66.0" r="24" fill="#8B5CF6" filter="url(#sh)"/><g transform="translate(823.4 53.4) scale(1.0500)" fill="none" stroke="#FFFFFF" stroke-width="2" stroke-linecap="round" stroke-linejoin="round"><path d="M11.017 2.814a1 1 0 0 1 1.966 0l1.051 5.558a2 2 0 0 0 1.594 1.594l5.558 1.051a1 1 0 0 1 0 1.966l-5.558 1.051a2 2 0 0 0-1.594 1.594l-1.051 5.558a1 1 0 0 1-1.966 0l-1.051-5.558a2 2 0 0 0-1.594-1.594l-5.558-1.051a1 1 0 0 1 0-1.966l5.558-1.051a2 2 0 0 0 1.594-1.594z"/><path d="M20 2v4"/><path d="M22 4h-4"/><circle cx="4" cy="20" r="2"/></g></svg>